<mxfile host="app.diagrams.net" agent="Mozilla/5.0 (Windows NT 10.0; Win64; x64) AppleWebKit/537.36 (KHTML, like Gecko) Chrome/130.0.0.0 Safari/537.36" version="25.0.3">
  <diagram name="Trang-1" id="yfaMay46llF_YCHkVv0r">
    <mxGraphModel dx="1390" dy="1147" grid="0" gridSize="10" guides="1" tooltips="1" connect="1" arrows="1" fold="1" page="0" pageScale="1" pageWidth="1200" pageHeight="1600" math="0" shadow="0">
      <root>
        <mxCell id="0" />
        <mxCell id="1" parent="0" />
        <mxCell id="N2Df-jPv7RV9UjRPkUYa-1" value="admin" style="shape=umlActor;verticalLabelPosition=bottom;verticalAlign=top;html=1;outlineConnect=0;" vertex="1" parent="1">
          <mxGeometry x="91" y="177" width="76" height="117" as="geometry" />
        </mxCell>
        <mxCell id="N2Df-jPv7RV9UjRPkUYa-2" value="" style="group" vertex="1" connectable="0" parent="1">
          <mxGeometry x="283" y="-90" width="613" height="609" as="geometry" />
        </mxCell>
        <mxCell id="N2Df-jPv7RV9UjRPkUYa-3" value="" style="rounded=0;whiteSpace=wrap;html=1;align=center;" vertex="1" parent="N2Df-jPv7RV9UjRPkUYa-2">
          <mxGeometry width="613" height="609" as="geometry" />
        </mxCell>
        <mxCell id="N2Df-jPv7RV9UjRPkUYa-4" value="" style="group" vertex="1" connectable="0" parent="N2Df-jPv7RV9UjRPkUYa-2">
          <mxGeometry x="182" y="112.77777777777779" width="214" height="83.90666666666667" as="geometry" />
        </mxCell>
        <mxCell id="N2Df-jPv7RV9UjRPkUYa-5" value="" style="ellipse;whiteSpace=wrap;html=1;" vertex="1" parent="N2Df-jPv7RV9UjRPkUYa-4">
          <mxGeometry width="214" height="83.90666666666667" as="geometry" />
        </mxCell>
        <mxCell id="N2Df-jPv7RV9UjRPkUYa-6" value="&lt;font style=&quot;font-size: 20px;&quot;&gt;Quản lý sản phẩm&lt;/font&gt;" style="text;html=1;align=center;verticalAlign=middle;whiteSpace=wrap;rounded=0;" vertex="1" parent="N2Df-jPv7RV9UjRPkUYa-4">
          <mxGeometry x="11.5" y="10.826666666666668" width="191" height="55.03555555555556" as="geometry" />
        </mxCell>
        <mxCell id="N2Df-jPv7RV9UjRPkUYa-7" value="" style="group" vertex="1" connectable="0" parent="N2Df-jPv7RV9UjRPkUYa-2">
          <mxGeometry x="184" y="234.57777777777778" width="214" height="83.90666666666667" as="geometry" />
        </mxCell>
        <mxCell id="N2Df-jPv7RV9UjRPkUYa-8" value="" style="ellipse;whiteSpace=wrap;html=1;" vertex="1" parent="N2Df-jPv7RV9UjRPkUYa-7">
          <mxGeometry width="214" height="83.90666666666667" as="geometry" />
        </mxCell>
        <mxCell id="N2Df-jPv7RV9UjRPkUYa-9" value="&lt;span style=&quot;font-size: 20px;&quot;&gt;Quản lý danh mục&lt;/span&gt;" style="text;html=1;align=center;verticalAlign=middle;whiteSpace=wrap;rounded=0;" vertex="1" parent="N2Df-jPv7RV9UjRPkUYa-7">
          <mxGeometry x="17" y="11.72888888888889" width="191" height="55.03555555555556" as="geometry" />
        </mxCell>
        <mxCell id="N2Df-jPv7RV9UjRPkUYa-10" value="" style="group" vertex="1" connectable="0" parent="N2Df-jPv7RV9UjRPkUYa-2">
          <mxGeometry x="189" y="355.47555555555556" width="214" height="83.90666666666667" as="geometry" />
        </mxCell>
        <mxCell id="N2Df-jPv7RV9UjRPkUYa-11" value="" style="ellipse;whiteSpace=wrap;html=1;" vertex="1" parent="N2Df-jPv7RV9UjRPkUYa-10">
          <mxGeometry width="214" height="83.90666666666667" as="geometry" />
        </mxCell>
        <mxCell id="N2Df-jPv7RV9UjRPkUYa-12" value="&lt;span style=&quot;font-size: 20px;&quot;&gt;Quản lý nhà cung cấp&lt;/span&gt;" style="text;html=1;align=center;verticalAlign=middle;whiteSpace=wrap;rounded=0;" vertex="1" parent="N2Df-jPv7RV9UjRPkUYa-10">
          <mxGeometry x="15.5" y="14.435555555555556" width="191" height="55.03555555555556" as="geometry" />
        </mxCell>
        <mxCell id="N2Df-jPv7RV9UjRPkUYa-13" value="" style="group" vertex="1" connectable="0" parent="N2Df-jPv7RV9UjRPkUYa-2">
          <mxGeometry x="189" y="483.5911111111111" width="214" height="83.90666666666667" as="geometry" />
        </mxCell>
        <mxCell id="N2Df-jPv7RV9UjRPkUYa-14" value="" style="ellipse;whiteSpace=wrap;html=1;" vertex="1" parent="N2Df-jPv7RV9UjRPkUYa-13">
          <mxGeometry width="214" height="83.90666666666667" as="geometry" />
        </mxCell>
        <mxCell id="N2Df-jPv7RV9UjRPkUYa-15" value="&lt;font style=&quot;font-size: 20px;&quot;&gt;Quản lý hóa đơn&lt;/font&gt;" style="text;html=1;align=center;verticalAlign=middle;whiteSpace=wrap;rounded=0;" vertex="1" parent="N2Df-jPv7RV9UjRPkUYa-13">
          <mxGeometry x="11.5" y="14.435555555555556" width="191" height="55.03555555555556" as="geometry" />
        </mxCell>
        <mxCell id="N2Df-jPv7RV9UjRPkUYa-17" value="" style="endArrow=classic;html=1;rounded=0;exitX=1;exitY=0.3333333333333333;exitDx=0;exitDy=0;exitPerimeter=0;entryX=0.028;entryY=0.656;entryDx=0;entryDy=0;entryPerimeter=0;" edge="1" parent="1" source="N2Df-jPv7RV9UjRPkUYa-1" target="N2Df-jPv7RV9UjRPkUYa-5">
          <mxGeometry width="50" height="50" relative="1" as="geometry">
            <mxPoint x="224" y="189" as="sourcePoint" />
            <mxPoint x="582" y="104" as="targetPoint" />
          </mxGeometry>
        </mxCell>
        <mxCell id="N2Df-jPv7RV9UjRPkUYa-18" value="" style="endArrow=classic;html=1;rounded=0;entryX=0;entryY=0.5;entryDx=0;entryDy=0;exitX=1;exitY=0.3333333333333333;exitDx=0;exitDy=0;exitPerimeter=0;" edge="1" parent="1" source="N2Df-jPv7RV9UjRPkUYa-1" target="N2Df-jPv7RV9UjRPkUYa-8">
          <mxGeometry width="50" height="50" relative="1" as="geometry">
            <mxPoint x="180" y="223" as="sourcePoint" />
            <mxPoint x="645" y="158" as="targetPoint" />
          </mxGeometry>
        </mxCell>
        <mxCell id="N2Df-jPv7RV9UjRPkUYa-19" value="" style="endArrow=classic;html=1;rounded=0;exitX=1;exitY=0.3333333333333333;exitDx=0;exitDy=0;exitPerimeter=0;entryX=0;entryY=0.5;entryDx=0;entryDy=0;" edge="1" parent="1" source="N2Df-jPv7RV9UjRPkUYa-1" target="N2Df-jPv7RV9UjRPkUYa-11">
          <mxGeometry width="50" height="50" relative="1" as="geometry">
            <mxPoint x="595" y="208" as="sourcePoint" />
            <mxPoint x="645" y="158" as="targetPoint" />
          </mxGeometry>
        </mxCell>
        <mxCell id="N2Df-jPv7RV9UjRPkUYa-20" value="" style="endArrow=classic;html=1;rounded=0;entryX=0;entryY=0.5;entryDx=0;entryDy=0;exitX=1;exitY=0.3333333333333333;exitDx=0;exitDy=0;exitPerimeter=0;" edge="1" parent="1" source="N2Df-jPv7RV9UjRPkUYa-1" target="N2Df-jPv7RV9UjRPkUYa-14">
          <mxGeometry width="50" height="50" relative="1" as="geometry">
            <mxPoint x="184" y="213" as="sourcePoint" />
            <mxPoint x="645" y="158" as="targetPoint" />
          </mxGeometry>
        </mxCell>
      </root>
    </mxGraphModel>
  </diagram>
</mxfile>
